<?xml version="1.0" encoding="utf-8"?>
<!-- Generator: Adobe Illustrator 16.0.0, SVG Export Plug-In . SVG Version: 6.00 Build 0)  -->
<!DOCTYPE svg PUBLIC "-//W3C//DTD SVG 1.1//EN" "http://www.w3.org/Graphics/SVG/1.1/DTD/svg11.dtd">
<svg version="1.1" id="Layer_1" xmlns="http://www.w3.org/2000/svg" xmlns:xlink="http://www.w3.org/1999/xlink" x="0px" y="0px"
	 width="1224px" height="792px" viewBox="0 0 1224 792" enable-background="new 0 0 1224 792" xml:space="preserve">
<polygon fill="#FFCD05" points="481.934,482.621 481.74,482.621 481.74,482.426 482.711,481.454 483.682,480.288 484.071,480.288 
	485.819,479.317 489.704,477.375 487.956,476.015 489.704,474.85 490.092,474.655 490.675,474.266 491.063,474.071 492.423,472.905 
	493.977,471.74 494.559,471.157 495.336,470.574 495.919,469.991 496.696,469.408 498.833,467.465 499.027,467.077 499.804,466.688 
	500.192,466.494 500.775,466.105 501.164,465.912 501.358,465.717 501.552,465.717 503.494,465.134 504.854,464.94 505.631,464.94 
	505.825,464.94 506.02,464.94 507.185,464.745 508.738,464.94 509.127,465.134 510.292,465.134 511.069,465.134 511.264,465.134 
	513.982,465.134 514.177,465.134 514.371,465.134 516.896,464.551 519.421,463.969 520.781,463.386 521.946,462.997 523.5,462.414 
	525.443,461.248 527.191,459.5 528.162,458.723 528.162,458.528 529.327,457.752 530.104,457.557 530.299,457.557 531.853,457.362 
	536.32,457.362 537.291,456.974 537.874,456.586 538.262,456.003 539.039,454.836 539.428,454.254 540.01,453.282 540.205,452.117 
	540.205,451.533 540.399,450.562 540.399,449.979 540.205,449.591 540.01,449.202 539.816,448.813 539.622,448.231 539.233,447.26 
	539.233,446.871 539.233,446.288 539.039,445.511 539.039,445.316 539.039,443.762 539.039,442.984 539.039,442.597 
	539.039,442.208 539.233,442.014 539.233,441.819 539.233,441.625 539.428,440.848 539.622,440.459 540.205,439.488 
	540.205,439.294 540.399,439.294 540.788,438.904 540.981,438.711 541.176,438.516 542.147,437.933 543.312,437.156 
	544.089,436.768 546.809,435.796 547.78,435.603 550.693,434.242 551.276,433.659 551.665,433.271 551.858,433.075 552.83,431.911 
	553.218,431.521 554.384,428.996 554.578,428.607 555.354,427.636 556.132,427.054 556.521,426.859 556.714,426.665 
	556.909,426.665 558.462,426.082 558.657,426.082 560.211,425.499 560.988,425.111 561.182,425.111 561.376,425.111 561.57,424.917 
	561.959,424.722 562.542,424.333 563.513,423.361 565.844,421.03 566.232,420.447 566.426,420.253 566.814,419.671 567.203,419.282 
	568.562,418.311 569.922,417.339 570.894,416.949 573.613,415.202 574.001,415.008 575.944,413.842 576.333,413.647 
	577.109,413.453 577.498,413.259 577.692,413.259 577.692,413.064 578.275,413.064 580.023,413.453 580.412,413.259 581.576,412.87 
	582.354,412.676 584.296,412.093 585.655,411.315 587.792,410.733 588.763,410.538 589.152,410.15 589.346,409.955 589.734,408.985 
	590.123,408.401 590.512,408.013 590.9,407.624 591.094,407.43 591.482,407.235 591.677,407.235 591.871,407.042 592.454,406.847 
	593.425,406.07 594.008,405.487 594.202,404.71 594.396,403.545 594.784,402.572 594.784,402.378 594.979,401.989 595.173,401.602 
	595.562,400.63 596.338,400.047 596.921,399.853 597.31,399.853 598.086,400.047 598.475,400.241 599.446,400.63 600.223,401.019 
	601.971,401.407 602.36,401.602 602.748,401.602 602.942,401.602 603.525,401.407 604.69,400.436 605.856,399.464 607.021,398.687 
	607.798,398.299 608.187,398.299 608.381,398.104 608.575,398.104 610.129,398.299 610.712,398.299 611.1,398.104 613.82,395.579 
	614.014,395.19 614.402,394.606 614.596,393.635 614.596,392.664 614.402,392.081 612.46,388.777 611.683,388.001 610.518,387.224 
	609.158,386.641 608.964,386.641 608.575,386.252 608.381,385.864 608.187,385.28 607.604,383.337 607.604,383.144 607.604,382.949 
	606.827,381.784 606.438,380.813 606.245,380.424 605.856,379.258 605.661,379.258 605.661,379.064 604.497,378.286 
	604.497,378.092 604.302,378.092 603.914,377.704 603.719,377.704 603.525,377.315 603.331,377.121 602.942,377.121 
	602.748,376.732 602.36,376.538 601.194,375.761 600.223,375.178 596.921,373.624 596.144,372.846 595.755,372.651 593.813,371.681 
	592.842,370.708 592.065,368.767 590.9,366.241 590.317,364.298 589.541,362.744 588.763,361.189 588.181,360.217 585.85,357.691 
	585.461,357.303 584.878,356.72 584.684,356.526 583.907,355.943 583.131,355.36 582.159,355.36 581.771,355.36 580.799,354.972 
	579.246,353.612 577.692,352.057 577.498,352.057 576.333,351.086 575.167,349.92 574.584,349.143 574.584,348.948 574.196,347.783 
	574.196,347.2 574.196,345.84 574.196,345.451 573.613,343.702 573.03,341.565 572.836,340.983 572.642,340.789 572.059,339.234 
	570.894,336.319 570.699,335.931 570.311,335.738 569.922,335.349 568.174,334.571 567.786,334.377 567.592,334.377 
	567.592,334.183 567.203,333.988 567.009,333.794 566.814,333.794 566.814,333.6 566.426,333.211 565.067,332.822 564.678,332.822 
	563.901,333.405 561.376,334.183 560.017,334.377 559.822,334.377 559.434,334.377 559.24,334.377 559.045,334.183 558.462,333.988 
	557.88,333.6 557.686,333.405 556.909,332.822 556.714,332.434 556.521,332.434 556.326,332.24 555.938,331.852 555.549,331.852 
	554.578,331.462 554.384,331.462 554.189,331.268 553.995,331.074 553.801,330.879 553.606,330.491 553.606,330.297 
	553.413,330.103 553.413,329.714 553.024,327.188 552.247,323.69 551.665,322.137 551.665,321.942 552.053,320.582 552.247,320.193 
	552.441,319.806 552.247,319.806 552.247,319.028 552.247,317.862 552.83,317.085 553.218,315.919 553.413,314.753 553.218,313.588 
	553.218,313.004 552.83,310.479 552.636,308.925 552.636,307.37 552.636,306.981 552.83,305.428 552.636,302.902 552.441,302.124 
	552.247,301.542 550.499,300.182 549.528,298.822 548.945,298.239 547.391,296.296 546.614,295.519 546.42,295.325 544.672,294.741 
	543.507,294.16 542.536,293.965 540.01,293.576 539.816,293.576 539.428,293.576 539.039,293.576 538.845,293.771 538.457,293.965 
	538.068,294.16 537.874,294.353 537.68,294.547 536.125,295.908 535.932,295.908 535.349,296.296 534.572,296.296 534.183,296.296 
	533.795,296.102 533.212,296.102 533.018,296.102 532.824,295.908 531.853,295.519 531.658,295.519 531.464,295.325 531.27,295.13 
	530.881,294.936 530.493,294.547 529.91,293.771 529.716,293.382 529.521,292.799 529.521,292.604 529.521,292.022 529.716,291.827 
	530.104,291.051 530.299,290.856 530.299,290.079 530.493,290.079 530.299,289.884 530.299,289.69 530.299,289.496 530.299,289.301 
	530.104,287.165 529.327,286.193 529.327,285.61 528.939,285.028 528.356,284.25 528.356,283.667 528.551,283.473 529.133,283.085 
	530.299,283.085 530.687,282.696 530.687,282.501 530.687,281.918 530.493,279.587 530.299,278.81 530.104,278.032 529.91,277.839 
	529.91,277.645 528.551,276.672 528.745,276.09 529.327,274.73 530.299,273.37 530.493,273.175 530.881,272.592 531.853,272.205 
	532.046,271.815 532.241,271.621 532.241,271.427 532.435,271.038 532.824,270.65 533.018,269.872 532.824,269.483 532.824,269.29 
	532.629,269.29 532.435,269.096 532.241,269.096 532.241,268.901 532.046,268.901 531.853,268.901 531.658,268.901 530.687,268.901 
	530.493,268.901 529.327,268.513 528.551,267.541 528.551,267.347 528.551,267.152 528.356,266.959 528.356,266.57 528.162,265.986 
	528.356,265.404 528.356,265.21 528.745,263.85 529.133,262.878 529.133,262.49 529.521,261.519 529.91,260.741 530.104,260.546 
	530.104,260.353 530.687,259.77 531.27,258.41 531.464,258.41 531.464,258.215 531.464,258.021 532.046,257.049 532.046,256.661 
	532.046,256.078 531.658,255.495 531.464,255.495 531.464,255.301 531.27,255.106 530.687,254.523 529.716,253.358 529.521,252.969 
	529.521,252.192 529.521,251.803 529.716,251.609 530.493,250.832 532.046,250.055 532.629,249.472 533.018,248.889 
	533.212,247.917 533.406,246.946 533.601,246.363 533.795,246.169 533.989,245.975 533.989,245.781 534.377,245.586 
	535.154,245.586 535.543,245.586 536.125,245.781 538.068,246.558 539.816,246.752 540.788,246.752 540.981,246.558 541.37,246.169 
	541.952,245.197 542.341,244.227 542.729,243.643 543.507,243.255 543.701,243.255 543.896,243.061 544.089,243.061 
	544.866,242.866 545.06,242.866 545.449,242.672 546.809,240.535 547.003,240.341 547.003,239.757 546.809,239.174 547.003,238.786 
	547.391,238.203 547.78,237.621 548.751,236.843 549.722,235.289 549.917,234.9 549.917,234.706 549.917,234.123 549.917,233.929 
	549.722,233.734 549.722,233.541 549.333,233.151 547.974,231.792 547.585,231.209 547.391,230.82 547.391,230.432 547.585,230.043 
	547.78,229.46 548.751,228.877 551.276,228.877 551.858,229.072 552.247,229.46 553.218,229.266 553.413,229.266 554.189,228.1 
	555.354,226.546 555.549,226.546 555.549,225.963 555.743,225.38 555.938,225.186 555.938,224.604 555.743,224.02 555.743,223.632 
	555.354,223.243 554.578,222.272 553.995,221.106 553.606,220.717 553.413,220.329 551.858,218.774 551.47,218.386 551.47,217.997 
	551.665,216.832 551.47,215.277 551.276,214.695 551.276,214.306 550.888,213.917 550.888,213.723 549.528,212.557 549.139,212.168 
	547.974,211.197 547.585,210.614 547.197,209.837 546.226,208.283 546.031,207.505 545.06,205.563 544.089,204.396 543.896,203.62 
	543.701,202.26 543.701,202.065 543.507,201.677 543.701,201.094 543.507,200.706 543.507,200.511 543.118,200.317 541.952,200.511 
	541.564,200.511 541.176,200.123 540.981,199.345 540.981,198.763 541.37,197.985 541.564,197.403 541.564,196.819 541.564,195.848 
	541.759,195.459 541.759,195.265 542.147,195.071 542.341,194.876 542.341,194.683 543.118,194.1 545.449,192.739 545.644,192.351 
	547.197,191.768 547.391,191.574 547.974,191.185 548.168,191.185 548.557,190.603 548.945,190.408 549.139,190.214 
	549.139,189.826 550.693,189.242 551.858,189.242 552.636,188.854 557.297,186.134 558.074,185.745 559.045,184.579 
	559.822,184.191 560.599,183.996 560.793,183.802 560.599,182.831 560.599,182.442 561.765,180.888 562.153,180.305 
	562.542,179.527 562.542,178.945 563.124,177.779 563.318,177.391 564.095,177.391 565.455,175.836 566.232,175.253 
	567.203,174.865 568.369,174.67 570.505,173.311 570.894,172.728 571.282,171.368 571.282,171.173 571.282,170.979 571.088,170.785 
	570.894,170.785 570.311,170.785 569.729,171.173 568.757,172.145 568.174,172.339 567.98,172.534 567.397,172.534 567.009,172.534 
	566.814,172.339 566.814,171.562 568.562,167.87 568.951,167.288 570.117,166.705 570.894,166.51 571.477,166.51 571.67,166.316 
	574.778,164.179 574.778,163.984 574.778,163.596 575.167,163.013 577.692,161.848 579.052,160.876 582.354,156.602 
	582.936,155.242 583.131,154.659 583.325,154.27 585.267,152.521 586.433,150.773 587.209,149.219 587.209,148.441 587.986,146.499 
	588.375,145.916 588.375,145.527 589.152,144.167 590.512,142.03 590.512,141.641 590.706,141.447 590.317,140.864 589.346,139.893 
	589.152,139.699 589.346,138.532 590.123,137.367 590.317,136.396 591.094,134.647 591.289,134.453 591.482,134.258 
	592.454,134.064 592.842,133.675 593.036,133.287 593.23,132.509 593.036,131.732 593.036,131.538 593.036,131.344 594.008,129.401 
	594.202,128.624 594.396,128.235 594.396,128.041 594.784,127.458 595.173,127.069 595.95,125.71 597.31,123.961 598.475,123.572 
	599.058,122.99 600.029,121.824 602.554,120.075 602.748,119.881 602.554,119.298 602.166,118.327 601.971,118.327 602.166,117.743 
	602.748,117.355 602.942,117.161 603.331,117.161 603.525,116.966 604.302,116.966 604.497,116.966 605.273,116.966 
	605.856,116.966 605.856,116.772 606.05,116.772 606.245,116.772 606.438,116.772 606.633,116.578 607.216,115.801 607.41,115.606 
	607.604,115.412 607.798,115.217 607.798,114.83 608.187,114.052 608.381,113.275 608.381,113.081 609.158,111.915 609.546,111.915 
	609.74,111.72 610.129,111.72 612.849,111.72 613.625,111.72 615.373,111.526 617.705,110.166 618.287,109.972 619.064,109.778 
	620.034,109 620.229,109.195 620.424,109.389 621.783,110.166 623.726,111.332 625.861,112.692 628.193,114.052 629.553,114.83 
	635.573,118.521 641.596,122.212 643.731,123.572 643.927,123.572 644.12,123.767 644.703,124.155 648.2,126.292 650.141,127.652 
	654.804,130.373 658.882,132.898 659.854,133.481 660.437,133.87 662.378,135.035 665.486,136.978 667.233,138.338 668.205,138.921 
	668.594,139.115 668.788,139.31 668.982,139.31 669.953,140.087 670.147,140.087 675.586,143.779 675.976,143.973 676.363,144.167 
	677.141,144.75 677.917,145.139 678.693,145.527 680.637,146.693 681.802,147.47 682.578,148.053 682.967,148.247 685.298,149.607 
	686.657,150.384 686.657,150.579 690.153,152.716 694.038,155.047 700.642,158.933 702.196,159.71 702.391,159.904 706.08,161.848 
	707.052,162.43 709.383,163.596 711.52,164.762 715.016,166.899 715.21,166.899 715.599,167.093 715.793,167.288 717.347,168.065 
	717.347,168.259 717.735,168.453 717.93,168.453 718.707,169.036 721.037,170.202 721.426,170.396 721.426,170.59 722.202,170.979 
	722.591,171.173 722.785,171.368 724.146,172.145 725.116,172.728 725.699,172.922 726.67,173.505 726.864,173.699 727.64,174.087 
	729.584,175.253 729.973,175.447 731.332,176.225 732.108,176.614 733.662,177.585 734.051,177.779 734.439,178.168 
	734.827,178.362 735.022,178.362 736.965,179.527 737.547,179.917 737.741,179.917 738.324,180.305 739.684,181.082 
	739.878,181.276 741.82,182.442 742.014,182.442 744.346,183.802 745.316,184.385 748.424,186.134 750.173,187.299 751.531,188.077 
	752.697,188.659 752.891,188.854 754.057,189.437 755.222,190.214 758.33,191.962 758.719,192.156 760.078,192.934 760.855,193.711 
	761.244,193.905 761.826,193.905 763.38,193.905 762.798,197.597 762.409,199.151 761.438,203.231 761.049,204.786 760.467,207.117 
	760.078,208.477 759.495,211.002 759.106,212.363 759.106,212.751 758.913,213.528 758.719,213.723 757.553,217.997 
	757.165,219.357 756.389,221.106 755.61,222.854 753.862,226.74 753.087,228.489 752.697,229.266 751.143,234.317 750.756,235.095 
	750.367,235.678 750.173,235.678 748.619,238.592 747.842,240.146 747.259,241.312 746.094,243.449 745.899,243.838 
	745.511,244.809 744.928,245.781 744.54,246.363 744.346,246.752 742.985,249.278 742.402,250.444 742.209,251.026 741.432,254.912 
	741.238,256.272 741.043,257.243 740.85,257.438 740.85,257.827 740.85,258.215 740.85,258.41 740.654,258.798 740.654,259.576 
	740.46,260.546 740.46,260.741 740.46,261.13 740.267,262.101 737.741,261.907 737.547,262.101 737.353,262.294 736.965,262.878 
	736.965,263.072 735.411,265.404 734.634,265.986 734.244,266.375 732.496,267.735 732.108,268.124 731.913,268.318 
	731.332,268.901 729.973,270.456 729.777,270.65 729.584,271.232 729,272.592 728.613,273.953 729,275.312 727.835,276.284 
	725.311,276.867 724.533,277.062 723.174,277.256 722.202,277.45 720.648,277.839 719.096,278.228 718.9,278.228 715.793,277.645 
	712.103,277.062 711.325,277.256 710.937,277.45 710.937,277.645 710.742,277.839 710.354,278.228 709.383,279.393 708.606,280.363 
	708.411,280.752 708.218,282.891 708.022,284.25 707.829,286.582 707.635,289.301 707.44,290.856 707.44,291.244 707.246,293.576 
	707.246,293.771 706.664,295.713 706.08,297.462 705.498,298.239 703.556,297.85 703.167,297.85 700.06,299.987 699.672,301.736 
	699.672,302.319 700.254,305.04 700.447,306.789 699.477,308.148 698.506,309.507 698.117,309.896 697.535,310.673 697.34,310.868 
	696.952,311.451 696.758,311.645 696.563,312.034 696.176,313.004 695.787,314.56 695.98,315.142 695.98,315.531 696.369,316.696 
	696.758,318.445 696.758,318.639 697.729,320.193 698.506,320.388 698.895,320.582 702.391,321.748 704.721,323.109 
	707.246,324.274 707.246,324.663 707.829,325.828 707.829,326.217 707.44,326.605 707.635,326.994 708.606,326.217 709.771,325.828 
	709.966,325.633 710.549,325.246 711.131,324.274 713.462,322.331 713.462,322.525 713.462,323.69 713.073,324.08 713.462,324.468 
	714.434,323.497 714.822,323.885 715.016,324.274 715.404,323.885 715.599,323.885 716.569,324.274 717.347,324.08 717.541,324.274 
	717.541,324.08 718.317,323.69 719.289,323.497 719.872,322.72 720.066,322.525 720.455,322.331 720.648,322.331 720.843,322.525 
	721.426,322.72 721.814,323.109 722.009,323.302 722.591,323.69 722.979,323.885 723.95,324.468 726.476,325.246 728.418,326.022 
	728.613,326.022 729.194,326.217 730.36,326.799 731.332,327.382 732.885,328.742 733.273,328.937 734.051,329.52 734.051,329.714 
	734.244,329.714 734.439,329.909 735.217,330.297 735.411,330.297 736.382,330.879 738.518,331.268 743.957,332.628 
	744.733,332.628 745.316,332.628 745.899,330.686 746.287,327.771 746.482,325.051 746.094,324.08 743.957,320 743.568,319.806 
	741.82,318.25 741.82,317.669 742.402,317.28 743.763,317.474 744.346,318.057 745.705,319.028 749.008,325.633 749.201,333.211 
	749.589,335.349 749.979,338.651 750.367,341.954 750.367,344.286 750.367,347.588 750.367,347.978 750.173,349.531 749.979,351.28 
	749.783,353.612 749.589,355.555 749.589,355.749 749.396,357.109 749.396,358.469 749.396,359.052 749.201,360.217 748.813,362.16 
	748.619,363.715 748.424,364.492 748.036,365.852 748.036,366.629 747.646,368.184 746.482,373.624 746.287,374.595 
	746.094,375.373 746.094,375.761 745.705,376.732 745.705,377.315 745.511,377.51 745.511,378.286 745.316,378.48 744.928,380.424 
	744.928,380.618 744.54,381.784 744.54,382.367 744.346,382.949 744.15,383.532 743.957,384.504 743.763,385.475 743.568,385.864 
	743.373,386.835 743.181,387.613 743.181,388.001 742.985,388.584 742.598,390.333 741.626,393.83 740.85,397.133 740.46,398.493 
	740.071,400.824 739.878,401.989 739.296,405.487 739.684,405.875 739.878,406.07 739.489,406.265 739.101,407.818 738.518,409.567 
	738.518,410.15 738.324,410.538 738.13,411.898 737.353,416.174 735.993,423.556 735.217,428.413 735.022,429.579 734.439,432.688 
	734.051,434.437 734.051,434.825 734.051,435.019 733.662,436.573 733.662,437.156 733.273,439.488 733.273,440.459 
	732.885,442.014 732.691,444.151 732.496,444.734 732.496,445.511 732.108,447.648 732.108,448.425 731.72,450.368 731.72,450.951 
	731.525,452.505 731.525,453.282 730.943,459.5 730.555,462.997 730.555,463.774 729.389,477.181 728.224,484.758 728.224,484.952 
	728.224,485.534 728.224,485.923 727.835,486.701 727.447,487.479 726.087,489.81 725.505,490.78 725.311,491.169 725.116,491.558 
	723.174,496.221 722.396,498.358 720.455,502.632 720.26,503.215 720.26,503.41 720.066,503.603 719.483,504.381 717.347,508.072 
	715.016,512.347 714.627,512.735 712.685,516.231 711.325,518.564 708.606,523.616 707.246,525.947 706.857,526.529 
	706.664,527.113 704.139,531.775 702.391,534.69 702.391,534.885 702.196,535.273 702.003,535.468 701.613,535.855 700.837,536.633 
	700.642,536.827 700.447,537.021 698.312,540.518 695.593,544.987 693.067,546.348 692.873,546.348 692.096,546.541 
	689.377,546.736 689.183,548.29 688.988,549.262 688.794,549.65 689.765,551.981 690.542,552.176 690.931,553.148 690.542,554.896 
	686.657,561.696 685.104,564.222 681.608,568.497 680.054,570.439 679.472,571.022 679.082,571.411 679.082,571.604 
	678.888,571.604 677.917,572.383 677.528,572.576 676.169,573.742 675.197,574.52 674.614,575.102 674.033,575.491 671.896,577.239 
	671.896,578.017 671.702,578.794 671.702,578.988 671.702,579.376 671.507,580.153 670.925,580.931 670.73,581.125 670.535,581.32 
	669.76,581.514 668.788,581.902 667.429,582.68 667.233,582.68 665.68,583.263 664.903,583.651 664.515,583.846 664.32,584.039 
	663.544,584.234 662.961,584.623 662.767,584.623 662.185,584.816 661.989,585.011 661.407,585.399 660.437,585.982 659.271,586.76 
	659.076,586.954 658.299,587.342 658.105,587.537 657.522,587.925 656.551,588.509 655.969,588.896 655.773,589.091 
	655.386,589.286 654.608,589.675 654.414,589.868 654.221,590.062 653.638,590.451 653.249,590.646 653.055,590.646 
	652.667,591.034 651.89,591.617 650.724,592.199 647.227,595.503 645.286,597.057 645.092,597.834 644.897,598.611 644.703,599.194 
	644.314,599.389 644.12,599.777 643.731,600.165 643.731,600.36 643.537,600.555 643.148,600.748 642.761,600.942 642.372,601.137 
	641.789,601.525 640.624,602.108 640.042,602.303 639.847,602.497 639.458,602.886 638.876,603.273 638.682,603.469 
	638.293,603.857 636.739,605.217 636.545,605.605 634.797,607.354 633.826,608.52 633.631,608.52 633.631,608.714 632.854,609.88 
	630.523,613.184 629.746,614.154 627.804,616.291 627.804,616.681 627.609,617.264 626.833,619.595 626.639,619.789 623.531,623.48 
	623.531,623.675 623.143,623.868 622.949,624.646 619.841,629.892 619.841,630.086 619.258,631.059 617.898,633.39 617.51,634.361 
	616.927,635.138 616.539,635.721 616.15,636.692 615.373,638.053 615.18,638.829 615.373,639.413 617.122,640.967 616.927,642.132 
	615.763,643.298 615.567,643.492 615.373,643.687 613.625,645.823 610.906,648.738 609.158,651.652 607.604,653.984 
	603.331,660.979 601.971,666.224 601.971,666.419 600.806,668.361 599.058,669.139 598.863,669.139 597.892,669.722 597.504,670.11 
	595.95,671.276 595.367,671.859 594.396,672.636 594.008,673.024 590.706,676.328 590.123,677.104 587.404,680.407 587.404,680.213 
	586.626,679.824 586.433,679.63 584.296,680.019 584.102,680.019 583.325,680.407 582.742,680.797 579.634,682.351 579.052,682.544 
	578.08,682.739 577.304,682.934 577.109,683.128 576.915,683.128 576.138,683.128 574.778,683.128 569.922,682.544 569.146,682.544 
	568.562,681.961 567.592,680.407 568.951,673.996 569.146,673.801 569.146,673.607 569.922,670.11 569.922,669.527 570.311,667.779 
	570.505,667.195 570.505,667.002 570.699,666.029 571.282,664.67 571.282,664.281 571.865,662.727 571.865,662.533 572.447,661.173 
	572.642,660.979 573.03,660.008 573.418,659.036 574.001,658.064 574.001,657.87 574.39,657.287 574.39,657.093 574.584,656.898 
	575.944,654.372 576.333,653.401 577.498,651.069 579.439,647.379 580.023,646.213 580.412,645.629 580.994,644.463 581.576,642.91 
	581.965,641.355 582.547,639.606 582.547,639.413 582.547,639.218 583.713,632.418 583.519,628.921 583.519,628.727 
	583.325,628.532 582.742,627.755 582.547,627.755 580.217,625.034 579.634,624.84 578.469,624.258 574.584,622.897 570.117,621.343 
	569.729,621.343 569.146,621.149 567.98,620.954 567.203,620.761 567.009,620.761 565.067,620.954 563.124,620.954 560.793,620.761 
	558.074,620.372 557.491,620.178 557.686,619.012 558.462,618.235 558.462,617.846 558.074,616.874 558.074,616.681 
	558.074,616.485 557.297,616.098 556.326,615.32 555.161,615.126 554.578,615.709 553.995,616.098 553.218,615.709 551.276,615.709 
	547.003,616.874 545.06,616.291 544.284,616.098 543.118,616.098 542.924,616.291 542.536,616.485 541.759,617.068 540.205,619.595 
	539.428,621.149 537.68,623.675 537.291,623.48 535.543,621.731 533.795,619.983 532.241,618.235 532.435,616.485 532.629,614.737 
	531.464,610.463 530.299,608.52 525.054,603.857 523.889,603.857 522.335,603.079 521.752,602.691 519.616,601.72 518.645,601.137 
	518.45,601.137 518.062,600.165 518.256,599.583 518.256,598.806 518.062,598.417 516.702,595.115 516.702,594.92 516.314,594.92 
	514.76,594.531 513.789,594.143 513.012,593.948 511.264,595.115 511.069,595.115 510.487,596.669 509.904,597.446 509.321,596.862 
	506.796,594.531 505.048,592.394 503.883,589.286 503.105,587.148 502.912,585.788 502.912,585.594 502.523,585.206 
	501.746,584.039 500.192,583.263 497.861,583.457 497.279,583.846 496.696,584.429 496.113,585.011 491.452,580.931 490.675,579.57 
	490.675,578.6 490.675,578.211 490.48,577.822 490.092,576.657 489.898,576.073 489.898,575.88 489.704,575.88 489.121,575.686 
	488.344,575.297 487.179,574.908 485.625,574.326 485.625,574.13 483.876,572.965 481.934,570.439 480.963,568.497 480.38,566.942 
	479.214,564.417 477.855,561.891 477.855,561.696 475.913,561.891 474.553,561.307 471.834,559.365 470.668,558.394 
	470.474,558.394 470.474,558.199 470.28,557.811 470.086,556.839 465.23,556.45 465.036,556.45 464.842,556.45 463.676,554.119 
	463.482,552.565 463.482,551.981 463.482,551.788 463.871,547.901 466.59,547.708 466.784,547.125 466.59,547.125 466.396,546.93 
	466.201,546.93 466.201,545.958 466.201,544.599 466.784,540.907 466.784,539.742 466.784,538.771 466.007,538.576 465.618,537.604 
	465.813,537.021 466.978,535.661 468.337,534.107 469.115,532.359 469.309,532.164 469.697,531.192 469.503,528.861 
	469.115,528.084 468.337,527.501 467.949,527.501 467.172,527.307 466.201,526.335 465.618,525.753 465.036,525.169 
	464.647,524.976 464.647,524.781 463.871,524.392 463.676,524.198 462.123,523.032 461.734,522.061 461.54,521.866 461.54,521.284 
	461.54,520.701 461.345,519.341 461.151,517.787 461.151,516.621 461.151,516.426 461.54,515.844 461.734,515.261 462.705,514.483 
	462.899,514.483 463.482,513.901 463.871,513.318 464.259,512.93 464.453,512.735 464.842,512.54 465.618,512.347 466.201,511.764 
	466.201,511.57 466.784,510.986 467.172,510.599 467.172,510.403 467.366,510.209 467.561,510.015 467.561,509.821 467.949,509.238 
	468.532,508.655 468.726,508.461 469.115,507.684 469.503,507.295 469.892,505.936 470.086,505.741 470.474,503.41 470.474,503.215 
	470.474,501.271 470.863,500.689 471.445,500.301 472.805,499.718 473.388,498.358 473.582,497.775 473.776,497.387 
	474.359,496.415 474.942,496.221 475.33,496.415 475.524,496.415 475.524,496.608 476.107,496.804 476.301,496.415 476.495,495.639 
	476.301,495.249 476.495,494.083 476.69,493.306 476.69,492.723 476.884,492.141 477.079,491.751 477.079,491.558 477.467,490.78 
	477.661,490.198 477.855,489.81 478.438,488.061 478.632,487.479 479.021,486.312 479.021,485.534 479.409,485.146 479.798,484.563 
	481.157,483.785 481.934,482.815 "/>
</svg>
